<?xml version="1.0" encoding="UTF-8" standalone="no"?>
<!-- Created with Inkscape (http://www.inkscape.org/) -->

<svg
   xmlns:dc="http://purl.org/dc/elements/1.1/"
   xmlns:cc="http://creativecommons.org/ns#"
   xmlns:rdf="http://www.w3.org/1999/02/22-rdf-syntax-ns#"
   xmlns:svg="http://www.w3.org/2000/svg"
   xmlns="http://www.w3.org/2000/svg"
   xmlns:sodipodi="http://sodipodi.sourceforge.net/DTD/sodipodi-0.dtd"
   xmlns:inkscape="http://www.inkscape.org/namespaces/inkscape"
   width="1900"
   height="200"
   viewBox="0 0 1900 200"
   id="svg2"
   version="1.1"
   inkscape:version="0.91 r13725"
   sodipodi:docname="header.svg">
  <defs
     id="defs4" />
  <sodipodi:namedview
     id="base"
     pagecolor="#ffffff"
     bordercolor="#666666"
     borderopacity="1.0"
     inkscape:pageopacity="0.0"
     inkscape:pageshadow="2"
     inkscape:zoom="0.35"
     inkscape:cx="583.27142"
     inkscape:cy="542.87204"
     inkscape:document-units="px"
     inkscape:current-layer="layer2"
     showgrid="false"
     units="px"
     inkscape:snap-center="false"
     inkscape:window-width="1536"
     inkscape:window-height="803"
     inkscape:window-x="-8"
     inkscape:window-y="-8"
     inkscape:window-maximized="1" />
  <metadata
     id="metadata7">
    <rdf:RDF>
      <cc:Work
         rdf:about="">
        <dc:format>image/svg+xml</dc:format>
        <dc:type
           rdf:resource="http://purl.org/dc/dcmitype/StillImage" />
        <dc:title></dc:title>
      </cc:Work>
    </rdf:RDF>
  </metadata>
  <g
     inkscape:label="Layer 1"
     inkscape:groupmode="layer"
     id="layer1"
     transform="translate(0,-852.36216)" />
  <g
     inkscape:groupmode="layer"
     id="layer2"
     inkscape:label="Background"
     transform="translate(0,100)">
    <rect
       style="fill:#16a085;fill-opacity:1"
       id="rect4163"
       width="1903.0269"
       height="201.34053"
       x="-0.1695978"
       y="-99.911964" />
    <text
       xml:space="preserve"
       style="font-style:normal;font-weight:normal;font-size:40px;line-height:125%;font-family:sans-serif;letter-spacing:0px;word-spacing:0px;fill:#000000;fill-opacity:1;stroke:none;stroke-width:1px;stroke-linecap:butt;stroke-linejoin:miter;stroke-opacity:1"
       x="28.571428"
       y="60.714287"
       id="text4143"
       sodipodi:linespacing="125%"><tspan
         sodipodi:role="line"
         id="tspan4145"
         x="28.571428"
         y="60.714287" /><tspan
         sodipodi:role="line"
         x="28.571428"
         y="110.71429"
         id="tspan4147" /></text>
    <path
       sodipodi:type="inkscape:offset"
       inkscape:radius="1.6409706"
       inkscape:original="M 110.82812 39.806641 L 110.82812 69.285156 L 112.86719 69.285156 L 112.94727 66.326172 C 115.06727 69.046172 117.94859 69.765625 120.30859 69.765625 C 126.30859 69.765625 129.78906 65.645156 129.78906 59.285156 C 129.78906 52.765156 126.74898 48.765625 120.70898 48.765625 C 118.34898 48.765625 116.50742 49.365078 113.10742 52.205078 L 113.10742 39.806641 L 110.82812 39.806641 z M 200.21289 39.806641 L 200.21289 69.285156 L 202.25195 69.285156 L 202.33203 66.326172 C 204.45203 69.046172 207.33336 69.765625 209.69336 69.765625 C 215.69336 69.765625 219.17188 65.645156 219.17188 59.285156 C 219.17188 52.765156 216.1318 48.765625 210.0918 48.765625 C 207.7318 48.765625 205.89219 49.365078 202.49219 52.205078 L 202.49219 39.806641 L 200.21289 39.806641 z M 238.84961 42.005859 C 238.08961 42.005859 237.44922 42.565156 237.44922 43.285156 C 237.44922 44.005156 238.08961 44.605469 238.84961 44.605469 C 239.60961 44.605469 240.25 44.005156 240.25 43.285156 C 240.25 42.565156 239.60961 42.005859 238.84961 42.005859 z M 182.14062 48.726562 C 175.54063 48.726562 172.01953 53.326094 172.01953 59.246094 C 172.01953 65.366094 175.82086 69.765625 182.38086 69.765625 C 185.26086 69.765625 187.89953 69.086484 190.01953 67.646484 L 189.01953 66.40625 C 186.97953 67.56625 184.62086 68.045859 182.38086 68.005859 C 177.74086 67.965859 174.77984 65.045391 174.33984 60.525391 L 191.5 60.525391 C 191.66 59.605391 191.74023 58.605781 191.74023 57.925781 C 191.74023 51.885781 188.22063 48.726562 182.14062 48.726562 z M 67.800781 48.765625 C 61.120781 48.765625 57.320312 53.445156 57.320312 59.285156 C 57.320312 65.365156 61.320781 69.806641 67.800781 69.806641 C 69.800781 69.806641 72.159687 69.285156 73.679688 68.285156 L 72.400391 66.806641 C 71.240391 67.606641 69.360938 67.964844 67.960938 67.964844 C 62.920937 67.964844 59.640625 64.485156 59.640625 59.285156 C 59.640625 54.285156 62.760938 50.646484 67.960938 50.646484 C 69.840937 50.646484 71.400234 51.086562 72.240234 51.726562 L 73.480469 50.246094 C 72.320469 49.406094 70.280781 48.765625 67.800781 48.765625 z M 91.552734 48.765625 C 84.832734 48.765625 81.072266 53.325156 81.072266 59.285156 C 81.072266 65.285156 84.832734 69.806641 91.552734 69.806641 C 98.352734 69.806641 102.0332 65.405156 102.0332 59.285156 C 102.0332 53.125156 98.152734 48.765625 91.552734 48.765625 z M 259.30859 48.765625 C 252.58859 48.765625 248.83008 53.325156 248.83008 59.285156 C 248.83008 65.285156 252.58859 69.806641 259.30859 69.806641 C 266.10859 69.806641 269.78906 65.405156 269.78906 59.285156 C 269.78906 53.125156 265.90859 48.765625 259.30859 48.765625 z M 135.85352 49.285156 L 143.13281 69.285156 L 145.57227 69.285156 L 151.13281 52.685547 L 156.65234 69.285156 L 159.13281 69.285156 L 166.41406 49.285156 L 164.09375 49.285156 L 157.89258 66.605469 L 152.21289 49.285156 L 150.05273 49.285156 L 144.33398 66.605469 L 138.17383 49.285156 L 135.85352 49.285156 z M 237.68945 49.285156 L 237.68945 69.285156 L 240.00977 69.285156 L 240.00977 49.285156 L 237.68945 49.285156 z M 182.2207 50.525391 C 186.8607 50.525391 189.58008 52.605391 189.58008 57.525391 C 189.58008 57.965391 189.54094 58.565 189.46094 59.125 L 174.33984 59.125 L 174.33984 58.685547 C 174.41984 53.965547 177.1407 50.525391 182.2207 50.525391 z M 91.552734 50.646484 C 96.632734 50.646484 99.712891 54.005156 99.712891 59.285156 C 99.712891 64.565156 96.752734 67.964844 91.552734 67.964844 C 86.432734 67.964844 83.392578 64.445156 83.392578 59.285156 C 83.392578 54.165156 86.432734 50.646484 91.552734 50.646484 z M 120.22852 50.646484 C 125.34852 50.646484 127.46875 53.965156 127.46875 59.285156 C 127.46875 64.365156 124.90805 67.925781 119.74805 67.925781 C 117.54805 67.925781 114.98742 67.205156 113.10742 64.285156 L 113.10742 54.285156 C 116.38742 51.205156 117.98852 50.646484 120.22852 50.646484 z M 209.61328 50.646484 C 214.73328 50.646484 216.85156 53.965156 216.85156 59.285156 C 216.85156 64.365156 214.29281 67.925781 209.13281 67.925781 C 206.93281 67.925781 204.37219 67.205156 202.49219 64.285156 L 202.49219 54.285156 C 205.77219 51.205156 207.37328 50.646484 209.61328 50.646484 z M 259.30859 50.646484 C 264.38859 50.646484 267.46875 54.005156 267.46875 59.285156 C 267.46875 64.565156 264.50859 67.964844 259.30859 67.964844 C 254.18859 67.964844 251.14844 64.445156 251.14844 59.285156 C 251.14844 54.165156 254.18859 50.646484 259.30859 50.646484 z M 227.66992 67.044922 C 226.82992 67.044922 226.34961 67.645156 226.34961 68.285156 C 226.34961 68.885156 226.82992 69.486328 227.66992 69.486328 C 228.46992 69.486328 228.99023 68.885156 228.99023 68.285156 C 228.99023 67.645156 228.46992 67.044922 227.66992 67.044922 z "
       style="font-style:normal;font-variant:normal;font-weight:normal;font-stretch:normal;font-size:40px;line-height:125%;font-family:corbert;-inkscape-font-specification:corbert;letter-spacing:0.04px;word-spacing:0px;fill:#ffffff;fill-opacity:1;stroke:none;stroke-width:0.2;stroke-linecap:butt;stroke-linejoin:miter;stroke-miterlimit:4;stroke-dasharray:none;stroke-opacity:1"
       id="path4155"
       d="m 110.82812,38.166016 a 1.6411347,1.6411347 0 0 0 -1.64062,1.640625 l 0,29.478515 a 1.6411347,1.6411347 0 0 0 1.64062,1.640625 l 2.03907,0 a 1.6411347,1.6411347 0 0 0 1.57422,-1.18164 c 1.95884,1.193766 4.07958,1.662109 5.86718,1.662109 3.37565,0 6.27271,-1.216168 8.2168,-3.40625 1.94409,-2.190082 2.9043,-5.235507 2.9043,-8.714844 0,-3.515045 -0.81448,-6.549549 -2.65625,-8.755859 -1.84178,-2.20631 -4.68225,-3.404297 -8.06446,-3.404297 -1.87627,0 -3.80764,0.761824 -5.96093,2.078125 l 0,-9.396484 a 1.6411347,1.6411347 0 0 0 -1.64063,-1.640625 l -2.2793,0 z m 89.38477,0 a 1.6411347,1.6411347 0 0 0 -1.64062,1.640625 l 0,29.478515 a 1.6411347,1.6411347 0 0 0 1.64062,1.640625 l 2.03906,0 a 1.6411347,1.6411347 0 0 0 1.57422,-1.18164 c 1.95885,1.193766 4.07959,1.662109 5.86719,1.662109 3.37564,0 6.27321,-1.216076 8.2168,-3.40625 1.94358,-2.190174 2.90234,-5.235675 2.90234,-8.714844 0,-3.515045 -0.81448,-6.549549 -2.65625,-8.755859 C 216.31448,48.322987 213.474,47.125 210.0918,47.125 c -1.87628,0 -3.80628,0.761837 -5.95899,2.078125 l 0,-9.396484 a 1.6411347,1.6411347 0 0 0 -1.64062,-1.640625 l -2.2793,0 z m 38.63672,2.199218 c -1.56508,0 -3.04102,1.226903 -3.04102,2.919922 0,1.69302 1.4169,2.960938 3.04102,2.960938 1.62412,0 3.04102,-1.267918 3.04101,-2.960938 0,-1.693019 -1.47593,-2.919922 -3.04101,-2.919922 z m -56.70899,6.720704 c -3.68119,0 -6.72955,1.338532 -8.7539,3.582031 -2.02435,2.243499 -3.00781,5.292786 -3.00781,8.578125 0,3.399753 1.07307,6.472695 3.17187,8.683594 2.09881,2.210898 5.18323,3.476562 8.83008,3.476562 3.13797,0 6.11539,-0.741484 8.56055,-2.402344 a 1.6411347,1.6411347 0 0 0 0.35547,-2.386718 l -1,-1.240235 a 1.6411347,1.6411347 0 0 0 -2.0879,-0.396484 c -1.73648,0.987414 -3.81351,1.420217 -5.79882,1.384765 a 1.6411347,1.6411347 0 0 0 -0.0156,0 c -1.97876,-0.01706 -3.42961,-0.616034 -4.48242,-1.611328 -0.681,-0.643791 -1.14013,-1.553633 -1.48242,-2.58789 l 15.07031,0 a 1.6411347,1.6411347 0 0 0 1.61719,-1.359375 c 0.17851,-1.026453 0.26367,-2.071786 0.26367,-2.88086 0,-3.338739 -1.01682,-6.157297 -3.03516,-8.058593 -2.01833,-1.901297 -4.88085,-2.78125 -8.20508,-2.78125 z M 67.800781,47.125 c -3.723182,0 -6.837792,1.347081 -8.941406,3.585938 -2.103614,2.238856 -3.179688,5.298256 -3.179687,8.574218 0,3.399904 1.136749,6.475847 3.271484,8.681641 2.134735,2.205794 5.234694,3.480469 8.849609,3.480469 2.285247,0 4.828842,-0.506538 6.78125,-1.791016 a 1.6411347,1.6411347 0 0 0 0.337891,-2.445312 L 73.640625,65.732422 A 1.6411347,1.6411347 0 0 0 71.46875,65.455078 c -0.666511,0.459663 -2.387718,0.869141 -3.507812,0.869141 -2.142351,0 -3.738361,-0.703709 -4.863282,-1.882813 -1.124921,-1.179103 -1.816406,-2.901307 -1.816406,-5.15625 0,-2.158644 0.660013,-3.885508 1.769531,-5.076172 1.109518,-1.190663 2.69291,-1.921875 4.910157,-1.921875 1.623915,0 2.935404,0.477663 3.285156,0.744141 a 1.6411347,1.6411347 0 0 0 2.251953,-0.25 l 1.240234,-1.480469 A 1.6411347,1.6411347 0 0 0 74.443359,48.917969 C 72.864176,47.774423 70.563306,47.125 67.800781,47.125 Z m 23.751953,0 c -3.731133,0 -6.847871,1.309908 -8.953125,3.539062 -2.105253,2.229155 -3.167968,5.29597 -3.167968,8.621094 0,3.342823 1.062858,6.412941 3.169921,8.638672 2.107064,2.225731 5.223135,3.523438 8.951172,3.523438 3.754055,0 6.875599,-1.258424 8.980466,-3.476563 2.10487,-2.218138 3.14063,-5.296596 3.14063,-8.685547 0,-3.424574 -1.09786,-6.505498 -3.22461,-8.708984 C 98.322464,48.372686 95.214041,47.125 91.552734,47.125 Z m 167.755856,0 c -3.73113,0 -6.84836,1.309817 -8.95312,3.539062 -2.10476,2.229246 -3.16602,5.29615 -3.16602,8.621094 0,3.342645 1.0614,6.41285 3.16797,8.638672 2.10657,2.225822 5.22314,3.523438 8.95117,3.523438 3.75406,0 6.8756,-1.258424 8.98047,-3.476563 2.10487,-2.218138 3.14063,-5.296596 3.14063,-8.685547 0,-3.424574 -1.09786,-6.505499 -3.22461,-8.708984 C 266.07832,48.372686 262.9699,47.125 259.30859,47.125 Z m -123.45507,0.519531 a 1.6411347,1.6411347 0 0 0 -1.54297,2.201172 l 7.27929,20 a 1.6411347,1.6411347 0 0 0 1.54297,1.080078 l 2.43946,0 a 1.6411347,1.6411347 0 0 0 1.55664,-1.11914 l 3.99804,-11.9375 3.96875,11.933593 a 1.6411347,1.6411347 0 0 0 1.55664,1.123047 l 2.48047,0 a 1.6411347,1.6411347 0 0 0 1.54102,-1.080078 l 7.28125,-20 a 1.6411347,1.6411347 0 0 0 -1.54102,-2.201172 l -2.32031,0 a 1.6411347,1.6411347 0 0 0 -1.54492,1.087891 l -4.58789,12.816406 -4.18946,-12.77539 a 1.6411347,1.6411347 0 0 0 -1.55859,-1.128907 l -2.16016,0 a 1.6411347,1.6411347 0 0 0 -1.55859,1.126953 l -4.2168,12.773438 -4.55664,-12.810547 a 1.6411347,1.6411347 0 0 0 -1.54687,-1.089844 l -2.32031,0 z m 101.83593,0 a 1.6411347,1.6411347 0 0 0 -1.64062,1.640625 l 0,20 a 1.6411347,1.6411347 0 0 0 1.64062,1.640625 l 2.32032,0 a 1.6411347,1.6411347 0 0 0 1.64062,-1.640625 l 0,-20 a 1.6411347,1.6411347 0 0 0 -1.64062,-1.640625 l -2.32032,0 z m -55.46875,4.521485 c 2.0748,0 3.46751,0.46432 4.32227,1.234375 0.84798,0.763946 1.3821,1.9585 1.39062,4.083984 l -11.75,0 c 0.21683,-1.439147 0.65576,-2.689911 1.4336,-3.541016 1.00234,-1.096757 2.43393,-1.777343 4.60351,-1.777343 z m -90.667966,0.121093 c 2.178355,0 3.71497,0.675966 4.78711,1.820313 1.072139,1.144347 1.732422,2.856828 1.732422,5.177734 0,2.333338 -0.64126,4.061904 -1.697266,5.208985 -1.056006,1.14708 -2.57988,1.830078 -4.822266,1.830078 -2.183977,0 -3.715367,-0.701452 -4.791015,-1.873047 -1.075648,-1.171595 -1.728516,-2.90829 -1.728516,-5.166016 0,-2.235208 0.65094,-3.959422 1.726563,-5.126953 1.075622,-1.167531 2.608882,-1.871094 4.792968,-1.871094 z m 28.675786,0 c 2.20545,0 3.40264,0.615374 4.24804,1.695313 0.8454,1.079939 1.35156,2.860731 1.35156,5.302734 0,2.264276 -0.57284,4.021334 -1.53906,5.167969 -0.96621,1.146635 -2.33846,1.832031 -4.54101,1.832031 -1.74368,0 -3.4791,-0.448763 -5,-2.572265 l 0,-8.626953 c 1.23375,-1.100102 2.29286,-1.946245 3.02148,-2.296876 0.85356,-0.410753 1.47541,-0.501953 2.45899,-0.501953 z m 89.38476,0 c 2.20545,0 3.40114,0.615493 4.2461,1.695313 0.84495,1.07982 1.35156,2.860531 1.35156,5.302734 0,2.264486 -0.57331,4.021448 -1.53906,5.167969 -0.96576,1.146521 -2.33651,1.832031 -4.53907,1.832031 -1.74368,0 -3.47909,-0.448761 -5,-2.572265 l 0,-8.626953 c 1.23375,-1.100102 2.29287,-1.946245 3.02149,-2.296876 0.85355,-0.410753 1.4754,-0.501953 2.45898,-0.501953 z m 49.69531,0 c 2.17836,0 3.71497,0.675965 4.78711,1.820313 1.07214,1.144347 1.73242,2.856828 1.73242,5.177734 0,2.333338 -0.64125,4.061904 -1.69726,5.208985 -1.05601,1.147081 -2.57988,1.830078 -4.82227,1.830078 -2.18397,0 -3.71537,-0.701452 -4.79101,-1.873047 -1.07565,-1.171595 -1.72852,-2.908289 -1.72852,-5.166016 0,-2.235208 0.65094,-3.959422 1.72656,-5.126953 1.07563,-1.16753 2.60889,-1.871094 4.79297,-1.871094 z m -31.63867,13.117188 c -1.62172,0 -2.96094,1.419844 -2.96094,2.880859 0,1.47575 1.338,2.841797 2.96094,2.841797 1.62209,0 2.96094,-1.293115 2.96094,-2.841797 0,-1.529389 -1.34013,-2.880859 -2.96094,-2.880859 z"
       transform="matrix(1.6115137,0,0,1.8715798,35.66395,-109.73535)" />
  </g>
</svg>
