<?xml version="1.0" encoding="UTF-8" standalone="no"?>
<!-- Created with Inkscape (http://www.inkscape.org/) -->

<svg
   xmlns:dc="http://purl.org/dc/elements/1.1/"
   xmlns:cc="http://creativecommons.org/ns#"
   xmlns:rdf="http://www.w3.org/1999/02/22-rdf-syntax-ns#"
   xmlns:svg="http://www.w3.org/2000/svg"
   xmlns="http://www.w3.org/2000/svg"
   xmlns:sodipodi="http://sodipodi.sourceforge.net/DTD/sodipodi-0.dtd"
   xmlns:inkscape="http://www.inkscape.org/namespaces/inkscape"
   width="600mm"
   height="200mm"
   viewBox="0 0 2125.9843 708.66141"
   id="svg4156"
   version="1.1"
   inkscape:version="0.91 r13725"
   sodipodi:docname="logo.svg">
  <defs
     id="defs4158" />
  <sodipodi:namedview
     id="base"
     pagecolor="#ffffff"
     bordercolor="#666666"
     borderopacity="1.0"
     inkscape:pageopacity="0.0"
     inkscape:pageshadow="2"
     inkscape:zoom="0.35"
     inkscape:cx="1062.9921"
     inkscape:cy="62.857143"
     inkscape:document-units="px"
     inkscape:current-layer="layer1"
     showgrid="false"
     inkscape:window-width="1536"
     inkscape:window-height="803"
     inkscape:window-x="-8"
     inkscape:window-y="-8"
     inkscape:window-maximized="1" />
  <metadata
     id="metadata4161">
    <rdf:RDF>
      <cc:Work
         rdf:about="">
        <dc:format>image/svg+xml</dc:format>
        <dc:type
           rdf:resource="http://purl.org/dc/dcmitype/StillImage" />
        <dc:title></dc:title>
      </cc:Work>
    </rdf:RDF>
  </metadata>
  <g
     inkscape:label="Layer 1"
     inkscape:groupmode="layer"
     id="layer1"
     transform="translate(0,-343.70083)">
    <rect
       style="fill:#16a085;fill-opacity:1;stroke-width:0.2;stroke-miterlimit:4;stroke-dasharray:none"
       id="rect4710"
       width="2128.5713"
       height="751.42865"
       x="-2.8571444"
       y="309.50507" />
    <path
       sodipodi:type="inkscape:offset"
       inkscape:radius="1.6409706"
       inkscape:original="M 110.82812 39.806641 L 110.82812 69.285156 L 112.86719 69.285156 L 112.94727 66.326172 C 115.06727 69.046172 117.94859 69.765625 120.30859 69.765625 C 126.30859 69.765625 129.78906 65.645156 129.78906 59.285156 C 129.78906 52.765156 126.74898 48.765625 120.70898 48.765625 C 118.34898 48.765625 116.50742 49.365078 113.10742 52.205078 L 113.10742 39.806641 L 110.82812 39.806641 z M 200.21289 39.806641 L 200.21289 69.285156 L 202.25195 69.285156 L 202.33203 66.326172 C 204.45203 69.046172 207.33336 69.765625 209.69336 69.765625 C 215.69336 69.765625 219.17188 65.645156 219.17188 59.285156 C 219.17188 52.765156 216.1318 48.765625 210.0918 48.765625 C 207.7318 48.765625 205.89219 49.365078 202.49219 52.205078 L 202.49219 39.806641 L 200.21289 39.806641 z M 238.84961 42.005859 C 238.08961 42.005859 237.44922 42.565156 237.44922 43.285156 C 237.44922 44.005156 238.08961 44.605469 238.84961 44.605469 C 239.60961 44.605469 240.25 44.005156 240.25 43.285156 C 240.25 42.565156 239.60961 42.005859 238.84961 42.005859 z M 182.14062 48.726562 C 175.54063 48.726562 172.01953 53.326094 172.01953 59.246094 C 172.01953 65.366094 175.82086 69.765625 182.38086 69.765625 C 185.26086 69.765625 187.89953 69.086484 190.01953 67.646484 L 189.01953 66.40625 C 186.97953 67.56625 184.62086 68.045859 182.38086 68.005859 C 177.74086 67.965859 174.77984 65.045391 174.33984 60.525391 L 191.5 60.525391 C 191.66 59.605391 191.74023 58.605781 191.74023 57.925781 C 191.74023 51.885781 188.22063 48.726562 182.14062 48.726562 z M 67.800781 48.765625 C 61.120781 48.765625 57.320312 53.445156 57.320312 59.285156 C 57.320312 65.365156 61.320781 69.806641 67.800781 69.806641 C 69.800781 69.806641 72.159687 69.285156 73.679688 68.285156 L 72.400391 66.806641 C 71.240391 67.606641 69.360938 67.964844 67.960938 67.964844 C 62.920937 67.964844 59.640625 64.485156 59.640625 59.285156 C 59.640625 54.285156 62.760938 50.646484 67.960938 50.646484 C 69.840937 50.646484 71.400234 51.086562 72.240234 51.726562 L 73.480469 50.246094 C 72.320469 49.406094 70.280781 48.765625 67.800781 48.765625 z M 91.552734 48.765625 C 84.832734 48.765625 81.072266 53.325156 81.072266 59.285156 C 81.072266 65.285156 84.832734 69.806641 91.552734 69.806641 C 98.352734 69.806641 102.0332 65.405156 102.0332 59.285156 C 102.0332 53.125156 98.152734 48.765625 91.552734 48.765625 z M 259.30859 48.765625 C 252.58859 48.765625 248.83008 53.325156 248.83008 59.285156 C 248.83008 65.285156 252.58859 69.806641 259.30859 69.806641 C 266.10859 69.806641 269.78906 65.405156 269.78906 59.285156 C 269.78906 53.125156 265.90859 48.765625 259.30859 48.765625 z M 135.85352 49.285156 L 143.13281 69.285156 L 145.57227 69.285156 L 151.13281 52.685547 L 156.65234 69.285156 L 159.13281 69.285156 L 166.41406 49.285156 L 164.09375 49.285156 L 157.89258 66.605469 L 152.21289 49.285156 L 150.05273 49.285156 L 144.33398 66.605469 L 138.17383 49.285156 L 135.85352 49.285156 z M 237.68945 49.285156 L 237.68945 69.285156 L 240.00977 69.285156 L 240.00977 49.285156 L 237.68945 49.285156 z M 182.2207 50.525391 C 186.8607 50.525391 189.58008 52.605391 189.58008 57.525391 C 189.58008 57.965391 189.54094 58.565 189.46094 59.125 L 174.33984 59.125 L 174.33984 58.685547 C 174.41984 53.965547 177.1407 50.525391 182.2207 50.525391 z M 91.552734 50.646484 C 96.632734 50.646484 99.712891 54.005156 99.712891 59.285156 C 99.712891 64.565156 96.752734 67.964844 91.552734 67.964844 C 86.432734 67.964844 83.392578 64.445156 83.392578 59.285156 C 83.392578 54.165156 86.432734 50.646484 91.552734 50.646484 z M 120.22852 50.646484 C 125.34852 50.646484 127.46875 53.965156 127.46875 59.285156 C 127.46875 64.365156 124.90805 67.925781 119.74805 67.925781 C 117.54805 67.925781 114.98742 67.205156 113.10742 64.285156 L 113.10742 54.285156 C 116.38742 51.205156 117.98852 50.646484 120.22852 50.646484 z M 209.61328 50.646484 C 214.73328 50.646484 216.85156 53.965156 216.85156 59.285156 C 216.85156 64.365156 214.29281 67.925781 209.13281 67.925781 C 206.93281 67.925781 204.37219 67.205156 202.49219 64.285156 L 202.49219 54.285156 C 205.77219 51.205156 207.37328 50.646484 209.61328 50.646484 z M 259.30859 50.646484 C 264.38859 50.646484 267.46875 54.005156 267.46875 59.285156 C 267.46875 64.565156 264.50859 67.964844 259.30859 67.964844 C 254.18859 67.964844 251.14844 64.445156 251.14844 59.285156 C 251.14844 54.165156 254.18859 50.646484 259.30859 50.646484 z M 227.66992 67.044922 C 226.82992 67.044922 226.34961 67.645156 226.34961 68.285156 C 226.34961 68.885156 226.82992 69.486328 227.66992 69.486328 C 228.46992 69.486328 228.99023 68.885156 228.99023 68.285156 C 228.99023 67.645156 228.46992 67.044922 227.66992 67.044922 z "
       style="font-style:normal;font-variant:normal;font-weight:normal;font-stretch:normal;font-size:40px;line-height:125%;font-family:corbert;-inkscape-font-specification:corbert;letter-spacing:0.04px;word-spacing:0px;fill:#ffffff;fill-opacity:1;stroke:none;stroke-width:0.2;stroke-linecap:butt;stroke-linejoin:miter;stroke-miterlimit:4;stroke-dasharray:none;stroke-opacity:1"
       id="path4155"
       d="m 110.82812,38.166016 a 1.6411347,1.6411347 0 0 0 -1.64062,1.640625 l 0,29.478515 a 1.6411347,1.6411347 0 0 0 1.64062,1.640625 l 2.03907,0 a 1.6411347,1.6411347 0 0 0 1.57422,-1.18164 c 1.95884,1.193766 4.07958,1.662109 5.86718,1.662109 3.37565,0 6.27271,-1.216168 8.2168,-3.40625 1.94409,-2.190082 2.9043,-5.235507 2.9043,-8.714844 0,-3.515045 -0.81448,-6.549549 -2.65625,-8.755859 -1.84178,-2.20631 -4.68225,-3.404297 -8.06446,-3.404297 -1.87627,0 -3.80764,0.761824 -5.96093,2.078125 l 0,-9.396484 a 1.6411347,1.6411347 0 0 0 -1.64063,-1.640625 l -2.2793,0 z m 89.38477,0 a 1.6411347,1.6411347 0 0 0 -1.64062,1.640625 l 0,29.478515 a 1.6411347,1.6411347 0 0 0 1.64062,1.640625 l 2.03906,0 a 1.6411347,1.6411347 0 0 0 1.57422,-1.18164 c 1.95885,1.193766 4.07959,1.662109 5.86719,1.662109 3.37564,0 6.27321,-1.216076 8.2168,-3.40625 1.94358,-2.190174 2.90234,-5.235675 2.90234,-8.714844 0,-3.515045 -0.81448,-6.549549 -2.65625,-8.755859 C 216.31448,48.322987 213.474,47.125 210.0918,47.125 c -1.87628,0 -3.80628,0.761837 -5.95899,2.078125 l 0,-9.396484 a 1.6411347,1.6411347 0 0 0 -1.64062,-1.640625 l -2.2793,0 z m 38.63672,2.199218 c -1.56508,0 -3.04102,1.226903 -3.04102,2.919922 0,1.69302 1.4169,2.960938 3.04102,2.960938 1.62412,0 3.04102,-1.267918 3.04101,-2.960938 0,-1.693019 -1.47593,-2.919922 -3.04101,-2.919922 z m -56.70899,6.720704 c -3.68119,0 -6.72955,1.338532 -8.7539,3.582031 -2.02435,2.243499 -3.00781,5.292786 -3.00781,8.578125 0,3.399753 1.07307,6.472695 3.17187,8.683594 2.09881,2.210898 5.18323,3.476562 8.83008,3.476562 3.13797,0 6.11539,-0.741484 8.56055,-2.402344 a 1.6411347,1.6411347 0 0 0 0.35547,-2.386718 l -1,-1.240235 a 1.6411347,1.6411347 0 0 0 -2.0879,-0.396484 c -1.73648,0.987414 -3.81351,1.420217 -5.79882,1.384765 a 1.6411347,1.6411347 0 0 0 -0.0156,0 c -1.97876,-0.01706 -3.42961,-0.616034 -4.48242,-1.611328 -0.681,-0.643791 -1.14013,-1.553633 -1.48242,-2.58789 l 15.07031,0 a 1.6411347,1.6411347 0 0 0 1.61719,-1.359375 c 0.17851,-1.026453 0.26367,-2.071786 0.26367,-2.88086 0,-3.338739 -1.01682,-6.157297 -3.03516,-8.058593 -2.01833,-1.901297 -4.88085,-2.78125 -8.20508,-2.78125 z M 67.800781,47.125 c -3.723182,0 -6.837792,1.347081 -8.941406,3.585938 -2.103614,2.238856 -3.179688,5.298256 -3.179687,8.574218 0,3.399904 1.136749,6.475847 3.271484,8.681641 2.134735,2.205794 5.234694,3.480469 8.849609,3.480469 2.285247,0 4.828842,-0.506538 6.78125,-1.791016 a 1.6411347,1.6411347 0 0 0 0.337891,-2.445312 L 73.640625,65.732422 A 1.6411347,1.6411347 0 0 0 71.46875,65.455078 c -0.666511,0.459663 -2.387718,0.869141 -3.507812,0.869141 -2.142351,0 -3.738361,-0.703709 -4.863282,-1.882813 -1.124921,-1.179103 -1.816406,-2.901307 -1.816406,-5.15625 0,-2.158644 0.660013,-3.885508 1.769531,-5.076172 1.109518,-1.190663 2.69291,-1.921875 4.910157,-1.921875 1.623915,0 2.935404,0.477663 3.285156,0.744141 a 1.6411347,1.6411347 0 0 0 2.251953,-0.25 l 1.240234,-1.480469 A 1.6411347,1.6411347 0 0 0 74.443359,48.917969 C 72.864176,47.774423 70.563306,47.125 67.800781,47.125 Z m 23.751953,0 c -3.731133,0 -6.847871,1.309908 -8.953125,3.539062 -2.105253,2.229155 -3.167968,5.29597 -3.167968,8.621094 0,3.342823 1.062858,6.412941 3.169921,8.638672 2.107064,2.225731 5.223135,3.523438 8.951172,3.523438 3.754055,0 6.875599,-1.258424 8.980466,-3.476563 2.10487,-2.218138 3.14063,-5.296596 3.14063,-8.685547 0,-3.424574 -1.09786,-6.505498 -3.22461,-8.708984 C 98.322464,48.372686 95.214041,47.125 91.552734,47.125 Z m 167.755856,0 c -3.73113,0 -6.84836,1.309817 -8.95312,3.539062 -2.10476,2.229246 -3.16602,5.29615 -3.16602,8.621094 0,3.342645 1.0614,6.41285 3.16797,8.638672 2.10657,2.225822 5.22314,3.523438 8.95117,3.523438 3.75406,0 6.8756,-1.258424 8.98047,-3.476563 2.10487,-2.218138 3.14063,-5.296596 3.14063,-8.685547 0,-3.424574 -1.09786,-6.505499 -3.22461,-8.708984 C 266.07832,48.372686 262.9699,47.125 259.30859,47.125 Z m -123.45507,0.519531 a 1.6411347,1.6411347 0 0 0 -1.54297,2.201172 l 7.27929,20 a 1.6411347,1.6411347 0 0 0 1.54297,1.080078 l 2.43946,0 a 1.6411347,1.6411347 0 0 0 1.55664,-1.11914 l 3.99804,-11.9375 3.96875,11.933593 a 1.6411347,1.6411347 0 0 0 1.55664,1.123047 l 2.48047,0 a 1.6411347,1.6411347 0 0 0 1.54102,-1.080078 l 7.28125,-20 a 1.6411347,1.6411347 0 0 0 -1.54102,-2.201172 l -2.32031,0 a 1.6411347,1.6411347 0 0 0 -1.54492,1.087891 l -4.58789,12.816406 -4.18946,-12.77539 a 1.6411347,1.6411347 0 0 0 -1.55859,-1.128907 l -2.16016,0 a 1.6411347,1.6411347 0 0 0 -1.55859,1.126953 l -4.2168,12.773438 -4.55664,-12.810547 a 1.6411347,1.6411347 0 0 0 -1.54687,-1.089844 l -2.32031,0 z m 101.83593,0 a 1.6411347,1.6411347 0 0 0 -1.64062,1.640625 l 0,20 a 1.6411347,1.6411347 0 0 0 1.64062,1.640625 l 2.32032,0 a 1.6411347,1.6411347 0 0 0 1.64062,-1.640625 l 0,-20 a 1.6411347,1.6411347 0 0 0 -1.64062,-1.640625 l -2.32032,0 z m -55.46875,4.521485 c 2.0748,0 3.46751,0.46432 4.32227,1.234375 0.84798,0.763946 1.3821,1.9585 1.39062,4.083984 l -11.75,0 c 0.21683,-1.439147 0.65576,-2.689911 1.4336,-3.541016 1.00234,-1.096757 2.43393,-1.777343 4.60351,-1.777343 z m -90.667966,0.121093 c 2.178355,0 3.71497,0.675966 4.78711,1.820313 1.072139,1.144347 1.732422,2.856828 1.732422,5.177734 0,2.333338 -0.64126,4.061904 -1.697266,5.208985 -1.056006,1.14708 -2.57988,1.830078 -4.822266,1.830078 -2.183977,0 -3.715367,-0.701452 -4.791015,-1.873047 -1.075648,-1.171595 -1.728516,-2.90829 -1.728516,-5.166016 0,-2.235208 0.65094,-3.959422 1.726563,-5.126953 1.075622,-1.167531 2.608882,-1.871094 4.792968,-1.871094 z m 28.675786,0 c 2.20545,0 3.40264,0.615374 4.24804,1.695313 0.8454,1.079939 1.35156,2.860731 1.35156,5.302734 0,2.264276 -0.57284,4.021334 -1.53906,5.167969 -0.96621,1.146635 -2.33846,1.832031 -4.54101,1.832031 -1.74368,0 -3.4791,-0.448763 -5,-2.572265 l 0,-8.626953 c 1.23375,-1.100102 2.29286,-1.946245 3.02148,-2.296876 0.85356,-0.410753 1.47541,-0.501953 2.45899,-0.501953 z m 89.38476,0 c 2.20545,0 3.40114,0.615493 4.2461,1.695313 0.84495,1.07982 1.35156,2.860531 1.35156,5.302734 0,2.264486 -0.57331,4.021448 -1.53906,5.167969 -0.96576,1.146521 -2.33651,1.832031 -4.53907,1.832031 -1.74368,0 -3.47909,-0.448761 -5,-2.572265 l 0,-8.626953 c 1.23375,-1.100102 2.29287,-1.946245 3.02149,-2.296876 0.85355,-0.410753 1.4754,-0.501953 2.45898,-0.501953 z m 49.69531,0 c 2.17836,0 3.71497,0.675965 4.78711,1.820313 1.07214,1.144347 1.73242,2.856828 1.73242,5.177734 0,2.333338 -0.64125,4.061904 -1.69726,5.208985 -1.05601,1.147081 -2.57988,1.830078 -4.82227,1.830078 -2.18397,0 -3.71537,-0.701452 -4.79101,-1.873047 -1.07565,-1.171595 -1.72852,-2.908289 -1.72852,-5.166016 0,-2.235208 0.65094,-3.959422 1.72656,-5.126953 1.07563,-1.16753 2.60889,-1.871094 4.79297,-1.871094 z m -31.63867,13.117188 c -1.62172,0 -2.96094,1.419844 -2.96094,2.880859 0,1.47575 1.338,2.841797 2.96094,2.841797 1.62209,0 2.96094,-1.293115 2.96094,-2.841797 0,-1.529389 -1.34013,-2.880859 -2.96094,-2.880859 z"
       transform="matrix(9.4247906,0,0,12.345088,-467.18288,-98.516493)" />
    <text
       xml:space="preserve"
       style="font-style:normal;font-variant:normal;font-weight:normal;font-stretch:normal;font-size:40px;line-height:0%;font-family:corbert;-inkscape-font-specification:corbert;text-align:start;letter-spacing:0px;word-spacing:0px;writing-mode:lr-tb;text-anchor:start;fill:#000000;fill-opacity:1;stroke:none;stroke-width:1px;stroke-linecap:butt;stroke-linejoin:miter;stroke-opacity:1;"
       x="102.85714"
       y="946.64789"
       id="text4143"
       sodipodi:linespacing="0%"><tspan
         sodipodi:role="line"
         id="tspan4145"
         x="102.85714"
         y="946.64789" /></text>
    <path
       sodipodi:type="inkscape:offset"
       inkscape:radius="4.4918532"
       inkscape:original="M 1389.1855 845.13281 C 1382.3455 844.86281 1376.5853 846.66203 1372.4453 850.08203 C 1367.7653 853.86203 1365.334 859.35133 1365.334 867.36133 L 1357.0547 867.36133 L 1357.0547 871.41211 L 1365.334 871.41211 L 1365.334 912.36133 L 1370.4648 912.36133 L 1370.4648 871.41211 L 1385.4043 871.41211 L 1385.4043 867.36133 L 1370.4648 867.36133 C 1370.4648 860.88133 1372.0855 856.56195 1375.6855 853.50195 C 1378.9255 850.53195 1383.4255 849.00195 1389.1855 849.00195 L 1389.1855 845.13281 z M 506.04102 846.03125 L 506.04102 893.55273 C 506.04102 900.03274 507.75203 904.9825 511.08203 908.3125 C 514.23203 911.4625 518.91125 912.9925 525.03125 912.8125 L 525.03125 908.94141 C 520.26125 908.94141 516.93164 907.59227 514.68164 905.07227 C 512.34164 902.46227 511.26172 898.50274 511.26172 893.55273 L 511.26172 846.03125 L 506.04102 846.03125 z M 1131.4121 846.03125 L 1131.4121 912.36133 L 1136.6328 912.36133 L 1136.6328 897.69141 L 1145.543 888.87305 L 1162.6426 912.36133 L 1168.7617 912.36133 L 1148.7832 885.27148 L 1166.332 867.36133 L 1160.3027 867.36133 L 1136.6328 891.03125 L 1136.6328 846.03125 L 1131.4121 846.03125 z M 1557.6387 846.03125 L 1557.6387 912.36133 L 1562.8574 912.36133 L 1562.8574 878.61133 C 1569.1574 872.67133 1572.8474 870.42188 1578.6074 870.42188 C 1585.8974 870.42188 1593.459 874.83203 1593.459 883.83203 L 1593.459 912.36133 L 1598.6777 912.36133 L 1598.6777 882.8418 C 1598.6777 871.68179 1588.8672 866.19141 1579.8672 866.19141 C 1573.1172 866.19141 1568.7974 869.07312 1562.8574 874.20312 L 1562.8574 846.03125 L 1557.6387 846.03125 z M 369.89258 850.98242 C 368.18258 850.98242 366.74219 852.24133 366.74219 853.86133 C 366.74219 855.48133 368.18258 856.83203 369.89258 856.83203 C 371.60258 856.83203 373.04297 855.48133 373.04297 853.86133 C 373.04297 852.24133 371.60258 850.98242 369.89258 850.98242 z M 1649.543 850.98242 C 1647.833 850.98242 1646.3945 852.24133 1646.3945 853.86133 C 1646.3945 855.48133 1647.833 856.83203 1649.543 856.83203 C 1651.253 856.83203 1652.6934 855.48133 1652.6934 853.86133 C 1652.6934 852.24133 1651.253 850.98242 1649.543 850.98242 z M 806.57617 854.3125 L 806.57617 867.36133 L 797.48633 867.36133 L 797.48633 871.41211 L 806.57617 871.41211 L 806.57617 893.73242 C 806.57617 899.85242 808.46492 904.4418 811.79492 907.5918 C 815.12492 910.8318 819.89625 912.54234 825.65625 912.90234 L 825.65625 908.94141 C 821.24625 908.49141 817.73469 906.96172 815.30469 904.26172 C 813.05469 901.74172 811.79492 898.23242 811.79492 893.73242 L 811.79492 871.41211 L 825.38477 871.41211 L 825.38477 867.36133 L 811.79492 867.36133 L 811.79492 854.3125 L 806.57617 854.3125 z M 1492.1445 854.3125 L 1492.1445 867.36133 L 1483.0547 867.36133 L 1483.0547 871.41211 L 1492.1445 871.41211 L 1492.1445 893.73242 C 1492.1445 899.85242 1494.0352 904.4418 1497.3652 907.5918 C 1500.6952 910.8318 1505.4646 912.54234 1511.2246 912.90234 L 1511.2246 908.94141 C 1506.8146 908.49141 1503.305 906.96172 1500.875 904.26172 C 1498.625 901.74172 1497.3652 898.23242 1497.3652 893.73242 L 1497.3652 871.41211 L 1510.9551 871.41211 L 1510.9551 867.36133 L 1497.3652 867.36133 L 1497.3652 854.3125 L 1492.1445 854.3125 z M 1806.8438 865.83203 C 1795.5937 865.83203 1787.4043 871.68242 1787.4043 882.48242 C 1787.4043 888.42242 1789.7431 892.83305 1793.7031 895.62305 C 1789.7431 897.69305 1787.7637 900.66133 1787.7637 903.36133 C 1787.7637 906.15133 1790.2835 908.85211 1794.6035 909.66211 C 1789.2935 911.28211 1785.334 914.70297 1785.334 921.54297 C 1785.334 931.98297 1797.393 935.40234 1808.373 935.40234 C 1819.083 935.40234 1830.6035 931.71281 1830.6035 921.63281 C 1830.6035 909.30281 1818.4537 907.77133 1808.0137 907.86133 L 1799.6445 907.86133 C 1794.9645 907.77133 1792.4434 905.61195 1792.4434 903.00195 C 1792.4434 901.02195 1794.0642 898.77219 1797.5742 897.24219 C 1800.1842 898.50219 1803.3337 899.13281 1806.8438 899.13281 C 1818.5438 899.13281 1826.373 893.37242 1826.373 882.48242 C 1826.373 877.17242 1823.9442 873.21289 1820.0742 870.96289 L 1830.1543 870.69141 L 1830.1543 867.36133 L 1816.0234 867.36133 C 1813.4134 866.37133 1810.2638 865.83203 1806.8438 865.83203 z M 736.66406 866.10156 C 721.81406 866.10156 713.89453 876.45148 713.89453 889.77148 C 713.89453 903.54149 722.44508 913.44141 737.20508 913.44141 C 743.68508 913.44141 749.62453 911.91188 754.39453 908.67188 L 752.14453 905.88281 C 747.55453 908.49281 742.24508 909.57242 737.20508 909.48242 C 726.76508 909.39242 720.10523 902.82235 719.11523 892.65234 L 757.72461 892.65234 C 758.08461 890.58234 758.26563 888.33273 758.26562 886.80273 C 758.26562 873.21273 750.34406 866.10156 736.66406 866.10156 z M 218.00391 866.19141 C 202.8839 866.19141 194.42383 876.45133 194.42383 889.86133 C 194.42383 903.36133 202.8839 913.53125 218.00391 913.53125 C 233.30391 913.53125 241.58398 903.63133 241.58398 889.86133 C 241.58398 876.00133 232.85391 866.19141 218.00391 866.19141 z M 308.26172 866.19141 C 293.23172 866.19141 284.68164 876.72133 284.68164 889.86133 C 284.68164 903.54133 293.68172 913.53125 308.26172 913.53125 C 312.76172 913.53125 318.07023 912.36133 321.49023 910.11133 L 318.61133 906.78125 C 316.00133 908.58125 311.77109 909.39258 308.62109 909.39258 C 297.28109 909.39258 289.90039 901.56133 289.90039 889.86133 C 289.90039 878.61133 296.92109 870.42188 308.62109 870.42188 C 312.85109 870.42188 316.36 871.41156 318.25 872.85156 L 321.04102 869.52148 C 318.43102 867.63148 313.84172 866.19141 308.26172 866.19141 z M 438.1543 866.19141 C 432.1243 866.19141 426.00406 868.08141 421.41406 870.69141 L 422.76367 873.93164 C 426.63367 871.77164 432.03391 869.97266 437.25391 869.97266 C 444.99391 869.97266 452.91406 874.3818 452.91406 882.8418 L 452.91406 887.88281 C 448.59406 885.36281 442.65438 883.92187 436.98438 883.92188 C 427.08437 883.92188 417.63477 888.33148 417.63477 898.77148 C 417.63477 908.49149 426.18344 913.53125 435.27344 913.53125 C 441.84344 913.53125 448.41344 911.28133 453.27344 905.61133 L 453.45508 912.36133 L 458.13477 912.36133 L 458.13477 882.93164 C 458.13477 871.68164 448.0543 866.19141 438.1543 866.19141 z M 649.9668 866.19141 C 643.0368 866.19141 638.7157 869.07297 632.5957 874.29297 L 632.41602 867.36133 L 627.82617 867.36133 L 627.82617 912.36133 L 632.95703 912.36133 L 632.95703 878.3418 C 639.25703 872.6718 643.03687 870.42188 648.79688 870.42188 C 656.26688 870.42188 664.00586 874.83203 664.00586 883.83203 L 664.00586 912.36133 L 669.13672 912.36133 L 669.13672 882.8418 C 669.13672 871.68179 659.1468 866.19141 649.9668 866.19141 z M 996.64258 866.19141 C 981.52258 866.19141 973.0625 876.45133 973.0625 889.86133 C 973.0625 903.36133 981.52258 913.53125 996.64258 913.53125 C 1011.9426 913.53125 1020.2227 903.63133 1020.2227 889.86133 C 1020.2227 876.00133 1011.4926 866.19141 996.64258 866.19141 z M 1087.5293 866.19141 C 1081.0493 866.28141 1074.9294 869.43305 1070.6094 875.37305 L 1070.3379 867.45312 L 1065.748 867.45312 L 1065.748 912.45312 L 1070.8789 912.45312 L 1070.8789 879.78125 C 1075.1989 873.12125 1081.1386 870.51172 1086.8086 870.51172 L 1088.0684 870.51172 L 1088.0684 866.28125 L 1087.5293 866.19141 z M 1292.6289 866.19141 C 1277.5089 866.19141 1269.0488 876.45133 1269.0488 889.86133 C 1269.0488 903.36133 1277.5089 913.53125 1292.6289 913.53125 C 1307.9289 913.53125 1316.209 903.63133 1316.209 889.86133 C 1316.209 876.00133 1307.4789 866.19141 1292.6289 866.19141 z M 1722.3047 866.19141 C 1715.3747 866.19141 1711.0555 869.07297 1704.9355 874.29297 L 1704.7559 867.36133 L 1700.166 867.36133 L 1700.166 912.36133 L 1705.2949 912.36133 L 1705.2949 878.3418 C 1711.5949 872.6718 1715.3748 870.42188 1721.1348 870.42188 C 1728.6048 870.42188 1736.3457 874.83203 1736.3457 883.83203 L 1736.3457 912.36133 L 1741.4746 912.36133 L 1741.4746 882.8418 C 1741.4746 871.68179 1731.4847 866.19141 1722.3047 866.19141 z M 135.54883 866.37305 C 126.00883 866.37305 116.82812 870.42265 116.82812 878.97266 C 116.82812 887.61266 123.93781 889.41141 132.75781 890.94141 C 140.49781 892.47141 147.42773 893.10258 147.42773 900.39258 C 147.42773 906.60258 140.94805 909.30273 133.74805 909.30273 C 127.08805 909.30273 120.06844 907.0525 116.64844 903.8125 L 114.84766 907.05273 C 118.89766 911.01274 126.63789 913.26172 133.83789 913.26172 C 143.10789 913.26172 152.46875 909.30227 152.46875 900.57227 C 152.46875 889.86226 143.01766 888.96227 132.84766 887.07227 C 126.90766 885.90227 121.95898 884.64266 121.95898 878.97266 C 121.95898 873.21266 128.34914 870.33203 135.36914 870.33203 C 140.22914 870.33203 145.53867 871.59195 149.13867 873.75195 L 150.75781 870.33203 C 146.70781 867.72203 141.03883 866.37305 135.54883 866.37305 z M 1891.875 866.37305 C 1882.335 866.37305 1873.1543 870.42265 1873.1543 878.97266 C 1873.1543 887.61266 1880.264 889.41141 1889.084 890.94141 C 1896.824 892.47141 1903.7539 893.10258 1903.7539 900.39258 C 1903.7539 906.60258 1897.2742 909.30273 1890.0742 909.30273 C 1883.4142 909.30273 1876.3946 907.0525 1872.9746 903.8125 L 1871.1738 907.05273 C 1875.2238 911.01274 1882.9641 913.26172 1890.1641 913.26172 C 1899.4341 913.26172 1908.7949 909.30227 1908.7949 900.57227 C 1908.7949 889.86226 1899.3438 888.96227 1889.1738 887.07227 C 1883.2338 885.90227 1878.2852 884.64266 1878.2852 878.97266 C 1878.2852 873.21266 1884.6753 870.33203 1891.6953 870.33203 C 1896.5553 870.33203 1901.8648 871.59195 1905.4648 873.75195 L 1907.084 870.33203 C 1903.034 867.72203 1897.365 866.37305 1891.875 866.37305 z M 367.2832 867.36133 L 367.2832 912.36133 L 372.50391 912.36133 L 372.50391 867.36133 L 367.2832 867.36133 z M 865.94922 867.36133 L 882.33008 912.36133 L 887.81836 912.36133 L 900.33008 875.01172 L 912.75 912.36133 L 918.33008 912.36133 L 934.70898 867.36133 L 929.48828 867.36133 L 915.53906 906.33203 L 902.75977 867.36133 L 897.89844 867.36133 L 885.0293 906.33203 L 871.16992 867.36133 L 865.94922 867.36133 z M 1646.9336 867.36133 L 1646.9336 912.36133 L 1652.1543 912.36133 L 1652.1543 867.36133 L 1646.9336 867.36133 z M 1806.8438 869.88281 C 1815.6638 869.88281 1821.6035 874.29242 1821.6035 882.48242 C 1821.6035 890.58242 1815.9338 895.08203 1806.8438 895.08203 C 1797.9337 895.08203 1792.1738 890.76242 1792.1738 882.48242 C 1792.1738 874.29242 1798.1137 869.88281 1806.8438 869.88281 z M 736.8457 870.15234 C 747.2857 870.15234 753.4043 874.83234 753.4043 885.90234 C 753.4043 886.89234 753.31477 888.24195 753.13477 889.50195 L 719.11523 889.50195 L 719.11523 888.51172 C 719.29523 877.89172 725.4157 870.15234 736.8457 870.15234 z M 218.00391 870.42188 C 229.43391 870.42188 236.36523 877.98133 236.36523 889.86133 C 236.36523 901.74133 229.70391 909.39258 218.00391 909.39258 C 206.4839 909.39258 199.64453 901.47133 199.64453 889.86133 C 199.64453 878.34133 206.4839 870.42188 218.00391 870.42188 z M 996.64258 870.42188 C 1008.0726 870.42188 1015.002 877.98133 1015.002 889.86133 C 1015.002 901.74133 1008.3426 909.39258 996.64258 909.39258 C 985.12258 909.39258 978.28125 901.47133 978.28125 889.86133 C 978.28125 878.34133 985.12258 870.42188 996.64258 870.42188 z M 1292.6289 870.42188 C 1304.0589 870.42188 1310.9883 877.98133 1310.9883 889.86133 C 1310.9883 901.74133 1304.3289 909.39258 1292.6289 909.39258 C 1281.1089 909.39258 1274.2695 901.47133 1274.2695 889.86133 C 1274.2695 878.34133 1281.1089 870.42188 1292.6289 870.42188 z M 437.79492 887.3418 C 443.28492 887.3418 448.95406 888.78258 452.91406 891.39258 L 452.91406 902.01172 C 448.50406 907.59172 442.56336 909.57227 436.44336 909.57227 C 429.06336 909.57227 422.58398 905.79195 422.58398 898.50195 C 422.58398 890.67195 429.78492 887.3418 437.79492 887.3418 z M 1807.0234 911.82227 C 1817.1034 911.82227 1825.3828 912.72297 1825.3828 921.54297 C 1825.3828 928.56297 1817.0146 931.44141 1807.4746 931.44141 C 1798.4746 931.44141 1790.4629 928.38297 1790.4629 921.54297 C 1790.4629 913.35297 1797.7534 911.82227 1807.0234 911.82227 z "
       style="font-style:normal;font-variant:normal;font-weight:normal;font-stretch:normal;font-size:80px;line-height:0%;font-family:Gabriola;-inkscape-font-specification:'Gabriola, Normal';text-align:start;letter-spacing:0px;word-spacing:0px;writing-mode:lr-tb;text-anchor:start;fill:#ffcc00;fill-opacity:1;stroke:none;stroke-width:1px;stroke-linecap:butt;stroke-linejoin:miter;stroke-opacity:1"
       id="path4153"
       d="m 1389.3633,840.64453 c -7.7137,-0.30449 -14.6353,1.74151 -19.7539,5.95899 -4.7178,3.81793 -7.4947,9.4483 -8.3692,16.26562 l -4.1855,0 a 4.4923024,4.4923024 0 0 0 -4.4922,4.49219 l 0,4.05078 a 4.4923024,4.4923024 0 0 0 4.4922,4.49219 l 3.7871,0 0,36.45703 a 4.4923024,4.4923024 0 0 0 4.4922,4.49219 l 5.1308,0 a 4.4923024,4.4923024 0 0 0 4.4922,-4.49219 l 0,-36.45703 10.4473,0 a 4.4923024,4.4923024 0 0 0 4.4922,-4.49219 l 0,-4.05078 a 4.4923024,4.4923024 0 0 0 -4.4922,-4.49219 l -10.0586,0 c 0.5033,-2.73856 1.5261,-4.48169 3.2481,-5.94531 a 4.4923024,4.4923024 0 0 0 0.1269,-0.11133 c 2.2793,-2.08933 5.5003,-3.31836 10.4648,-3.31836 a 4.4923024,4.4923024 0 0 0 4.4922,-4.49219 l 0,-3.86914 a 4.4923024,4.4923024 0 0 0 -4.3144,-4.48828 z m -883.32228,0.89453 a 4.4923024,4.4923024 0 0 0 -4.49219,4.49219 l 0,47.52148 c 0,7.27071 1.99769,13.57582 6.35742,17.93555 4.20848,4.20848 10.32289,6.01842 17.25781,5.81445 a 4.4923024,4.4923024 0 0 0 4.35938,-4.49023 l 0,-3.87109 a 4.4923024,4.4923024 0 0 0 -4.49219,-4.49219 c -3.92302,0 -5.68385,-0.89725 -6.99805,-2.36914 a 4.4923024,4.4923024 0 0 0 -0.008,-0.006 c -1.29122,-1.44021 -2.27148,-4.22479 -2.27148,-8.52149 l 0,-47.52148 a 4.4923024,4.4923024 0 0 0 -4.49219,-4.49219 l -5.2207,0 z m 625.37108,0 a 4.4923024,4.4923024 0 0 0 -4.4922,4.49219 l 0,66.33008 a 4.4923024,4.4923024 0 0 0 4.4922,4.49219 l 5.2207,0 a 4.4923024,4.4923024 0 0 0 4.4922,-4.49219 l 0,-12.79492 3.8633,-3.82422 14.0234,19.26367 a 4.4923024,4.4923024 0 0 0 3.6309,1.84766 l 6.1191,0 a 4.4923024,4.4923024 0 0 0 3.6153,-7.15821 l -17.709,-24.01172 14.873,-15.17773 a 4.4923024,4.4923024 0 0 0 -3.209,-7.63672 l -6.0293,0 a 4.4923024,4.4923024 0 0 0 -3.1757,1.31641 l -16.002,16.00195 0,-34.15625 a 4.4923024,4.4923024 0 0 0 -4.4922,-4.49219 l -5.2207,0 z m 426.2266,0 a 4.4923024,4.4923024 0 0 0 -4.4922,4.49219 l 0,66.33008 a 4.4923024,4.4923024 0 0 0 4.4922,4.49219 l 5.2187,0 a 4.4923024,4.4923024 0 0 0 4.4922,-4.49219 l 0,-31.71875 c 2.2848,-2.05501 4.1985,-3.58433 5.7109,-4.39649 1.8349,-0.98527 3.2517,-1.33203 5.5469,-1.33203 2.7392,0 5.5097,0.87977 7.3633,2.35352 1.8536,1.47375 2.9961,3.32244 2.9961,6.56445 l 0,28.5293 a 4.4923024,4.4923024 0 0 0 4.4922,4.49219 l 5.2187,0 a 4.4923024,4.4923024 0 0 0 4.4922,-4.49219 l 0,-29.51953 c 0,-6.89624 -3.2575,-12.56909 -7.7734,-16.0625 -4.5159,-3.49342 -10.1159,-5.08008 -15.5293,-5.08008 -4.7985,0 -8.7683,1.46762 -12.5176,3.69336 l 0,-19.36133 a 4.4923024,4.4923024 0 0 0 -4.4922,-4.49219 l -5.2187,0 z m -1187.74612,4.95117 c -3.91462,0 -7.64258,3.08854 -7.64258,7.3711 0,4.28256 3.56722,7.46289 7.64258,7.46289 4.07536,0 7.64258,-3.18033 7.64258,-7.46289 0,-4.28256 -3.72797,-7.3711 -7.64258,-7.3711 z m 1279.65042,0 c -3.9146,0 -7.6407,3.09203 -7.6407,7.3711 0,4.27906 3.5653,7.46289 7.6407,7.46289 4.0753,0 7.6425,-3.18031 7.6425,-7.46289 0,-4.28258 -3.7279,-7.3711 -7.6425,-7.3711 z m -842.96683,3.33008 a 4.4923024,4.4923024 0 0 0 -4.49219,4.49219 l 0,8.55664 -4.59765,0 a 4.4923024,4.4923024 0 0 0 -4.49219,4.49219 l 0,4.05078 a 4.4923024,4.4923024 0 0 0 4.49219,4.49219 l 4.59765,0 0,17.82812 c 0,7.03207 2.3233,13.03582 6.60547,17.09961 4.29863,4.16773 10.2102,6.1479 16.6875,6.55274 a 4.4923024,4.4923024 0 0 0 4.77149,-4.48243 l 0,-3.96093 a 4.4923024,4.4923024 0 0 0 -4.03711,-4.46875 c -3.62063,-0.36946 -5.90425,-1.48638 -7.45899,-3.20899 -1.42251,-1.5957 -2.36523,-3.8733 -2.36523,-7.53125 l 0,-17.82812 9.09766,0 a 4.4923024,4.4923024 0 0 0 4.49218,-4.49219 l 0,-4.05078 a 4.4923024,4.4923024 0 0 0 -4.49218,-4.49219 l -9.09766,0 0,-8.55664 a 4.4923024,4.4923024 0 0 0 -4.49219,-4.49219 l -5.21875,0 z m 685.56833,0 a 4.4923024,4.4923024 0 0 0 -4.4922,4.49219 l 0,8.55664 -4.5976,0 a 4.4923024,4.4923024 0 0 0 -4.4922,4.49219 l 0,4.05078 a 4.4923024,4.4923024 0 0 0 4.4922,4.49219 l 4.5976,0 0,17.82812 c 0,7.03302 2.3259,13.03642 6.6075,17.09961 4.298,4.16714 10.2081,6.1479 16.6855,6.55274 a 4.4923024,4.4923024 0 0 0 4.7715,-4.48243 l 0,-3.96093 a 4.4923024,4.4923024 0 0 0 -4.0371,-4.46875 c -3.6205,-0.36944 -5.9015,-1.4855 -7.457,-3.20899 -1.4226,-1.59571 -2.3653,-3.87332 -2.3653,-7.53125 l 0,-17.82812 9.0977,0 a 4.4923024,4.4923024 0 0 0 4.4922,-4.49219 l 0,-4.05078 a 4.4923024,4.4923024 0 0 0 -4.4922,-4.49219 l -9.0977,0 0,-8.55664 a 4.4923024,4.4923024 0 0 0 -4.4922,-4.49219 l -5.2207,0 z m 314.6993,11.51953 c -6.4037,0 -12.3132,1.65112 -16.7754,5.28516 -4.4623,3.63404 -7.1563,9.32206 -7.1563,15.85742 0,4.88147 1.544,9.21255 4.1055,12.65625 -2.2754,2.32563 -3.7461,5.10792 -3.7461,8.22266 0,2.43925 1.0359,4.54507 2.5762,6.30078 -0.4068,0.37673 -0.8958,0.6148 -1.2676,1.04492 -2.3731,2.74493 -3.7383,6.5492 -3.7383,10.83594 0,6.94948 4.5466,12.23452 9.9102,14.875 5.3635,2.64048 11.6648,3.47656 17.621,3.47656 5.8709,0 12.0054,-0.9227 17.1954,-3.60742 5.1899,-2.68473 9.5273,-7.90304 9.5273,-14.6543 0,-7.6404 -4.5937,-13.24613 -10.0605,-15.65429 -4.9289,-2.17121 -10.3555,-2.50696 -15.3829,-2.53321 5.4518,-0.40879 10.3831,-1.96201 14.1895,-5.08008 4.4573,-3.6512 7.0234,-9.36136 7.0234,-15.88281 0,-2.63344 -0.654,-5.04441 -1.6074,-7.27344 l 1.0176,-0.0273 a 4.4923024,4.4923024 0 0 0 4.3711,-4.49023 l 0,-3.33008 a 4.4923024,4.4923024 0 0 0 -4.4922,-4.49219 l -13.6367,0 c -2.9599,-0.97303 -6.1982,-1.5293 -9.6738,-1.5293 z m -1070.17974,0.26954 c -8.46855,0 -15.57959,3.10361 -20.28906,8.32421 -4.70947,5.2206 -6.97266,12.28767 -6.97266,19.83789 0,7.81475 2.47181,14.94828 7.35352,20.0918 4.88171,5.14352 12.06495,8.07031 20.44922,8.07031 7.18683,0 14.05277,-1.70226 19.71289,-5.54687 a 4.4923024,4.4923024 0 0 0 0.97265,-6.53516 l -2.25,-2.78906 a 4.4923024,4.4923024 0 0 0 -5.71679,-1.08398 c -3.75881,2.13736 -8.29614,3.09121 -12.63867,3.01367 a 4.4923024,4.4923024 0 0 0 -0.041,-0.002 c -4.28607,-0.0369 -7.33,-1.31579 -9.54102,-3.40625 -1.21663,-1.15029 -2.15136,-2.67049 -2.87304,-4.43945 l 32.89453,0 a 4.4923024,4.4923024 0 0 0 4.42578,-3.72265 c 0.41058,-2.36082 0.60743,-4.73482 0.60742,-6.61915 0,-7.66776 -2.35595,-14.26458 -7.08203,-18.71679 -4.72607,-4.45221 -11.3934,-6.47656 -19.01172,-6.47656 z m -518.66015,0.0898 c -8.57601,0 -15.8316,3.03118 -20.72657,8.21484 -4.89496,5.18367 -7.3457,12.29766 -7.3457,19.94727 0,7.6883 2.44945,14.81092 7.34961,19.98633 4.90016,5.1754 12.15556,8.17578 20.72266,8.17578 8.61882,0 15.88612,-2.90838 20.78515,-8.07032 4.89904,-5.16193 7.28711,-12.30646 7.28711,-20.09179 0,-7.8731 -2.53396,-15.02676 -7.48047,-20.15235 -4.94651,-5.12558 -12.17769,-8.00976 -20.59179,-8.00976 z m 90.25781,0 c -8.56399,0 -15.81118,3.12131 -20.69922,8.32422 -4.88804,5.20291 -7.37305,12.29362 -7.37305,19.83789 0,7.82506 2.62661,14.96415 7.58789,20.08984 4.96129,5.1257 12.16847,8.07227 20.48438,8.07227 5.27853,0 11.09156,-1.13009 15.69726,-4.16016 a 4.4923024,4.4923024 0 0 0 0.92969,-6.68945 l -2.8789,-3.33008 a 4.4923024,4.4923024 0 0 0 -5.94922,-0.75977 c -1.26196,0.87032 -5.06075,1.81641 -7.43946,1.81641 -4.63599,0 -7.99052,-1.49893 -10.36328,-3.98633 -2.37275,-2.48739 -3.86523,-6.14726 -3.86523,-11.05273 0,-4.6906 1.42721,-8.36498 3.76758,-10.87695 2.34036,-2.51198 5.65896,-4.07032 10.46093,-4.07032 3.52937,0 6.35891,1.09275 6.90625,1.50977 a 4.4923024,4.4923024 0 0 0 6.16602,-0.6875 l 2.79102,-3.33008 a 4.4923024,4.4923024 0 0 0 -0.8086,-6.52344 c -3.75804,-2.72133 -9.06123,-4.18359 -15.41406,-4.18359 z m 129.89258,0 c -6.9686,0 -13.68947,2.09038 -18.96094,5.08789 a 4.4923024,4.4923024 0 0 0 -1.92578,5.63086 l 1.34961,3.24023 a 4.4923024,4.4923024 0 0 0 6.33593,2.19532 c 3.244,-1.81061 8.11281,-3.38868 12.30079,-3.38868 3.01706,0 6.07247,0.92296 8.07812,2.39258 1.49114,1.09262 2.27777,2.47522 2.68359,4.1875 -3.5369,-1.03388 -7.28626,-1.61524 -11.03124,-1.61523 -5.61692,0 -11.26593,1.17877 -15.88477,4.26758 -4.61884,3.0888 -7.95703,8.49897 -7.95703,15.07421 0,6.17686 2.95694,11.40438 7.19336,14.60743 4.23642,3.20304 9.56236,4.64453 14.9375,4.64453 4.7781,0 9.67177,-1.25365 14.12695,-3.73828 a 4.4923024,4.4923024 0 0 0 4.05469,2.56836 l 4.67969,0 a 4.4923024,4.4923024 0 0 0 4.49218,-4.49219 l 0,-29.42969 c 0,-6.96663 -3.38041,-12.71126 -8.09961,-16.20117 -4.7192,-3.48991 -10.5927,-5.03125 -16.37304,-5.03125 z m 211.8125,0 c -5.15896,0 -9.35244,1.62972 -13.34571,4.09766 a 4.4923024,4.4923024 0 0 0 -4.20507,-2.92774 l -4.58985,0 a 4.4923024,4.4923024 0 0 0 -4.49219,4.49219 l 0,45 a 4.4923024,4.4923024 0 0 0 4.49219,4.49219 l 5.13086,0 a 4.4923024,4.4923024 0 0 0 4.49219,-4.49219 l 0,-31.95703 c 4.88072,-4.25759 7.19238,-5.49024 11.34766,-5.49024 2.85103,0 5.73351,0.89621 7.65039,2.38477 1.91687,1.48855 3.0664,3.3207 3.0664,6.5332 l 0,28.5293 a 4.4923024,4.4923024 0 0 0 4.49219,4.49219 l 5.13086,0 a 4.4923024,4.4923024 0 0 0 4.49219,-4.49219 l 0,-29.51953 c 0,-6.92031 -3.33239,-12.60611 -7.91797,-16.08789 -4.58558,-3.48179 -10.25865,-5.05469 -15.74414,-5.05469 z m 346.67578,0 c -8.57601,0 -15.8316,3.03118 -20.72656,8.21484 -4.89497,5.18367 -7.34571,12.29766 -7.34571,19.94727 0,7.68831 2.44945,14.81093 7.34961,19.98633 4.90016,5.1754 12.15556,8.17578 20.72266,8.17578 8.61882,0 15.88612,-2.90839 20.78512,-8.07032 4.8991,-5.16192 7.2871,-12.30645 7.2871,-20.09179 0,-7.87311 -2.5339,-15.02676 -7.4804,-20.15235 -4.9465,-5.12558 -12.1777,-8.00976 -20.59182,-8.00976 z m 90.82422,0 c -4.6066,0.064 -9.0207,1.57768 -12.9609,4.09375 a 4.4923024,4.4923024 0 0 0 -4.168,-2.83203 l -4.5899,0 a 4.4923024,4.4923024 0 0 0 -4.4921,4.49218 l 0,45 a 4.4923024,4.4923024 0 0 0 4.4921,4.49219 l 5.1309,0 a 4.4923024,4.4923024 0 0 0 4.4922,-4.49219 l 0,-31.11914 c 3.4381,-4.72083 7.4223,-6.33007 11.4375,-6.33007 l 1.2598,0 a 4.4923024,4.4923024 0 0 0 4.4921,-4.49219 l 0,-4.23047 a 4.4923024,4.4923024 0 0 0 -3.7539,-4.43164 l -0.539,-0.0898 a 4.4923024,4.4923024 0 0 0 -0.8008,-0.0606 z m 205.1621,0 c -8.576,0 -15.8316,3.03118 -20.7266,8.21484 -4.8949,5.18366 -7.3457,12.29766 -7.3457,19.94727 0,7.68831 2.4495,14.81093 7.3496,19.98633 4.9002,5.1754 12.1556,8.17578 20.7227,8.17578 8.6188,0 15.8861,-2.90839 20.7852,-8.07032 4.899,-5.16192 7.2871,-12.30645 7.2871,-20.09179 0,-7.87311 -2.534,-15.02676 -7.4805,-20.15235 -4.9465,-5.12558 -12.1777,-8.00976 -20.5918,-8.00976 z m 429.6758,0 c -5.159,0 -9.351,1.62971 -13.3438,4.09766 a 4.4923024,4.4923024 0 0 0 -4.205,-2.92774 l -4.5899,0 a 4.4923024,4.4923024 0 0 0 -4.4922,4.49219 l 0,45 a 4.4923024,4.4923024 0 0 0 4.4922,4.49219 l 5.1289,0 a 4.4923024,4.4923024 0 0 0 4.4922,-4.49219 l 0,-31.95703 c 4.8802,-4.25706 7.1926,-5.49024 11.3477,-5.49024 2.851,0 5.7349,0.89801 7.6523,2.38672 1.9174,1.48871 3.0664,3.31907 3.0664,6.53125 l 0,28.5293 a 4.4923024,4.4923024 0 0 0 4.4922,4.49219 l 5.1289,0 a 4.4923024,4.4923024 0 0 0 4.4922,-4.49219 l 0,-29.51953 c 0,-6.9203 -3.3324,-12.60611 -7.918,-16.08789 -4.5855,-3.48179 -10.2586,-5.05469 -15.7441,-5.05469 z m -1586.75587,0.18164 c -5.40558,0 -10.78456,1.06974 -15.24024,3.72852 -4.45568,2.65877 -7.97265,7.48054 -7.97265,13.36328 0,5.55208 2.94791,10.17668 6.8457,12.50586 3.89779,2.32918 8.30678,3.10774 12.80859,3.88867 l -0.10351,-0.0195 c 4.00491,0.79167 7.47583,1.42147 9.20898,2.23046 1.73316,0.809 1.83985,0.59279 1.83985,2.81446 0,1.54269 -0.36984,2.01589 -1.88867,2.89062 -1.51884,0.87474 -4.26035,1.52735 -7.29883,1.52735 -5.64822,0 -12.0637,-2.41613 -14.00977,-4.25977 a 4.4923024,4.4923024 0 0 0 -7.01562,1.08008 l -1.80078,3.24023 a 4.4923024,4.4923024 0 0 0 0.78515,5.39258 c 5.48767,5.36574 13.99548,7.49024 22.13086,7.49024 5.27453,0 10.62152,-1.04662 15.08789,-3.70313 4.46638,-2.65651 8.03516,-7.50803 8.03516,-13.47851 0,-6.67629 -3.83499,-11.7733 -8.4961,-14.08204 -4.64651,-2.3015 -9.79909,-2.90635 -14.75,-3.82421 l -0.01,-0.002 c -2.89605,-0.57101 -5.23245,-1.22244 -6.24414,-1.82031 -1.01324,-0.59878 -1.00977,-0.3429 -1.00977,-1.87109 0,-1.21891 0.3262,-1.71691 1.83985,-2.59766 1.51364,-0.88075 4.18253,-1.55078 7.07812,-1.55078 4.08368,0 8.86901,1.22531 11.45898,2.7793 a 4.4923024,4.4923024 0 0 0 6.3711,-1.92969 l 1.61914,-3.41992 a 4.4923024,4.4923024 0 0 0 -1.62695,-5.69727 c -5.06194,-3.26214 -11.41677,-4.67578 -17.64258,-4.67578 z m 1756.32617,0 c -5.4056,0 -10.7846,1.06974 -15.2402,3.72852 -4.4557,2.65877 -7.9727,7.48054 -7.9727,13.36328 0,5.55208 2.9479,10.17668 6.8457,12.50586 3.8978,2.32918 8.3068,3.10774 12.8086,3.88867 l -0.1035,-0.0195 c 4.0049,0.79167 7.4758,1.42147 9.209,2.23046 1.7331,0.809 1.8398,0.59278 1.8398,2.81446 0,1.54269 -0.3698,2.01589 -1.8887,2.89062 -1.5188,0.87474 -4.2603,1.52735 -7.2988,1.52735 -5.6482,0 -12.0637,-2.41613 -14.0097,-4.25977 a 4.4923024,4.4923024 0 0 0 -7.0157,1.08008 l -1.8008,3.24023 a 4.4923024,4.4923024 0 0 0 0.7852,5.39258 c 5.4877,5.36576 13.9955,7.49024 22.1309,7.49024 5.2745,0 10.6215,-1.04662 15.0879,-3.70313 4.4663,-2.65651 8.0351,-7.50804 8.0351,-13.47851 0,-6.6763 -3.835,-11.7733 -8.4961,-14.08204 -4.6465,-2.3015 -9.7991,-2.90635 -14.75,-3.82421 l -0.01,-0.002 c -2.896,-0.57101 -5.2324,-1.22245 -6.2441,-1.82031 -1.0132,-0.59877 -1.0098,-0.34288 -1.0098,-1.87109 0,-1.21893 0.3263,-1.71692 1.8399,-2.59766 1.5136,-0.88074 4.1825,-1.55078 7.0781,-1.55078 4.0837,0 8.869,1.22531 11.459,2.7793 a 4.4923024,4.4923024 0 0 0 6.3711,-1.92969 l 1.6191,-3.41992 a 4.4923024,4.4923024 0 0 0 -1.6269,-5.69727 c -5.062,-3.26214 -11.4168,-4.67578 -17.6426,-4.67578 z m -1524.5918,0.98828 a 4.4923024,4.4923024 0 0 0 -4.49218,4.49219 l 0,45 a 4.4923024,4.4923024 0 0 0 4.49218,4.49219 l 5.22071,0 a 4.4923024,4.4923024 0 0 0 4.49218,-4.49219 l 0,-45 a 4.4923024,4.4923024 0 0 0 -4.49218,-4.49219 l -5.22071,0 z m 498.66602,0 a 4.4923024,4.4923024 0 0 0 -4.2207,6.0293 l 16.38086,45 a 4.4923024,4.4923024 0 0 0 4.2207,2.95508 l 5.48828,0 a 4.4923024,4.4923024 0 0 0 4.25976,-3.06446 l 8.23633,-24.58789 8.17383,24.57813 a 4.4923024,4.4923024 0 0 0 4.26172,3.07422 l 5.58008,0 a 4.4923024,4.4923024 0 0 0 4.2207,-2.95508 l 16.37891,-45 a 4.4923024,4.4923024 0 0 0 -4.22071,-6.0293 l -5.2207,0 a 4.4923024,4.4923024 0 0 0 -4.22851,2.97852 l -9.53516,26.63672 -8.69727,-26.52344 a 4.4923024,4.4923024 0 0 0 -4.26757,-3.0918 l -4.86133,0 a 4.4923024,4.4923024 0 0 0 -4.26563,3.08398 l -8.76172,26.5293 -9.46875,-26.62695 a 4.4923024,4.4923024 0 0 0 -4.23242,-2.98633 l -5.2207,0 z m 780.98438,0 a 4.4923024,4.4923024 0 0 0 -4.4922,4.49219 l 0,45 a 4.4923024,4.4923024 0 0 0 4.4922,4.49219 l 5.2207,0 a 4.4923024,4.4923024 0 0 0 4.4922,-4.49219 l 0,-45 a 4.4923024,4.4923024 0 0 0 -4.4922,-4.49219 l -5.2207,0 z m 159.9102,11.50586 c 3.6614,0 6.2785,0.92727 7.8359,2.20703 1.5574,1.27976 2.4316,2.89128 2.4316,5.90039 0,3.00196 -0.8459,4.62422 -2.3613,5.89258 -1.5154,1.26836 -4.1024,2.21484 -7.9062,2.21484 -3.7292,0 -6.3054,-0.9156 -7.8106,-2.16211 -1.5051,-1.2465 -2.3672,-2.84688 -2.3672,-5.94531 0,-3.00907 0.8777,-4.62703 2.4278,-5.90625 1.55,-1.27922 4.1412,-2.20117 7.75,-2.20117 z m -1069.9981,0.26953 c 4.54881,0 7.46171,1.01358 9.1875,2.56836 1.60257,1.44376 2.67014,3.72135 2.82032,7.79688 l -24.65625,0 c 0.54143,-2.67752 1.41745,-5.02954 2.88085,-6.63086 2.09751,-2.29519 5.06641,-3.73438 9.76758,-3.73438 z m -518.84179,0.26953 c 4.72474,0 7.93895,1.44143 10.18945,3.84375 2.2505,2.40232 3.67969,6.0371 3.67969,11.10352 0,5.10045 -1.39186,8.77305 -3.60547,11.17773 -2.21362,2.40469 -5.39283,3.86133 -10.26367,3.86133 -4.73046,0 -7.92938,-1.49269 -10.19141,-3.95703 -2.26203,-2.46434 -3.67578,-6.15907 -3.67578,-11.08203 0,-4.87107 1.40988,-8.54019 3.67187,-10.9961 2.262,-2.4559 5.46462,-3.95117 10.19532,-3.95117 z m 778.63867,0 c 4.72472,0 7.93742,1.44157 10.18752,3.84375 2.25,2.40219 3.6797,6.03686 3.6797,11.10352 0,5.10069 -1.3924,8.77318 -3.6055,11.17773 -2.2132,2.40455 -5.3909,3.86133 -10.26172,3.86133 -4.73046,0 -7.9289,-1.49255 -10.19141,-3.95703 -2.2625,-2.46448 -3.67773,-6.15932 -3.67773,-11.08203 0,-4.87082 1.4094,-8.54006 3.67187,-10.9961 2.26247,-2.45603 5.46658,-3.95117 10.19727,-3.95117 z m 295.98632,0 c 4.7247,0 7.9375,1.44157 10.1875,3.84375 2.25,2.40219 3.6797,6.03686 3.6797,11.10352 0,5.10069 -1.3923,8.77318 -3.6055,11.17773 -2.2131,2.40455 -5.3908,3.86133 -10.2617,3.86133 -4.7304,0 -7.9294,-1.49268 -10.1914,-3.95703 -2.262,-2.46435 -3.6758,-6.15908 -3.6758,-11.08203 0,-4.87107 1.4099,-8.54019 3.6719,-10.9961 2.262,-2.4559 5.4646,-3.95117 10.1953,-3.95117 z m -854.83398,16.91992 c 3.86548,0 7.66534,1.05163 10.62696,2.45899 l 0,5.90625 c -3.3306,3.58691 -7.27627,4.88086 -11.97852,4.88086 -2.92303,0 -5.48984,-0.79918 -7.04883,-1.9375 -1.55899,-1.13832 -2.31836,-2.32642 -2.31836,-4.64063 0,-2.538 0.77671,-3.59838 2.54883,-4.74414 1.77212,-1.14575 4.78742,-1.92383 8.16992,-1.92383 z m 1360.38478,10.30274 c 1.8985,0.63877 3.89,1.05285 5.9844,1.23242 l -4.4473,0 c -1.4424,-0.0302 -2.2153,-0.33847 -2.5762,-0.53906 0.1087,-0.1541 0.5782,-0.35406 1.0391,-0.69336 z m 8.8437,14.17773 c 4.9062,0 9.1238,0.36597 11.2969,1.23243 2.1731,0.86645 2.5703,0.9916 2.5703,3.99609 0,1.72516 -0.5315,2.41578 -2.8496,3.54297 -2.3181,1.12719 -6.2482,1.86328 -10.5664,1.86328 -3.9912,0 -7.6522,-0.76026 -9.8164,-1.88086 -2.1642,-1.1206 -2.7031,-1.85916 -2.7031,-3.52539 0,-2.76216 0.414,-3.01318 2.2285,-3.86914 1.8145,-0.85596 5.4521,-1.35938 9.8398,-1.35938 z"
       transform="translate(57.142864,28.571434)" />
  </g>
</svg>
